<svg width="512" height="512" viewBox="0 0 512 512" fill="none" xmlns="http://www.w3.org/2000/svg">
<path d="M467 76H45C20.137 76 0 96.262 0 121V391C0 415.885 20.285 436 45 436H467C491.655 436 512 415.97 512 391V121C512 96.306 491.943 76 467 76ZM460.698 106C451.504 115.145 293.283 272.533 287.82 277.967C279.32 286.467 268.02 291.147 256 291.147C243.98 291.147 232.68 286.466 224.152 277.939C220.478 274.284 64.003 118.634 51.302 106H460.698ZM30 384.894V127.125L159.638 256.08L30 384.894ZM51.321 406L180.908 277.237L202.967 299.18C217.133 313.346 235.967 321.147 256 321.147C276.033 321.147 294.867 313.346 309.005 299.208L331.092 277.237L460.679 406H51.321ZM482 384.894L352.362 256.08L482 127.125V384.894Z" fill="white"/>
</svg>
